<mxfile host="app.diagrams.net" modified="2023-04-13T06:51:20.124Z" agent="Mozilla/5.0 (X11; Linux x86_64) AppleWebKit/537.36 (KHTML, like Gecko) Chrome/112.0.0.0 Safari/537.36" etag="MLaPqWmg5iYCki9WbQpI" version="21.1.7" type="device">
  <diagram name="Page-1" id="5Y-YymnwW8Ifd2om3H2A">
    <mxGraphModel dx="880" dy="590" grid="1" gridSize="10" guides="1" tooltips="1" connect="1" arrows="1" fold="1" page="1" pageScale="1" pageWidth="850" pageHeight="1100" math="0" shadow="0">
      <root>
        <mxCell id="0" />
        <mxCell id="1" parent="0" />
        <mxCell id="IGdE6E0HA_AKq9arTAFq-7" value="request&lt;br&gt;funds" style="edgeStyle=orthogonalEdgeStyle;rounded=0;orthogonalLoop=1;jettySize=auto;html=1;exitX=1;exitY=0.5;exitDx=0;exitDy=0;entryX=0;entryY=0.5;entryDx=0;entryDy=0;" edge="1" parent="1" source="IGdE6E0HA_AKq9arTAFq-1" target="IGdE6E0HA_AKq9arTAFq-2">
          <mxGeometry relative="1" as="geometry" />
        </mxCell>
        <mxCell id="IGdE6E0HA_AKq9arTAFq-9" value="stake" style="edgeStyle=orthogonalEdgeStyle;rounded=0;orthogonalLoop=1;jettySize=auto;html=1;exitX=0;exitY=0.5;exitDx=0;exitDy=0;" edge="1" parent="1" source="IGdE6E0HA_AKq9arTAFq-1" target="IGdE6E0HA_AKq9arTAFq-3">
          <mxGeometry relative="1" as="geometry" />
        </mxCell>
        <mxCell id="IGdE6E0HA_AKq9arTAFq-1" value="Rest" style="rounded=1;whiteSpace=wrap;html=1;" vertex="1" parent="1">
          <mxGeometry x="370" y="60" width="120" height="60" as="geometry" />
        </mxCell>
        <mxCell id="IGdE6E0HA_AKq9arTAFq-8" value="Funds/Reject" style="edgeStyle=orthogonalEdgeStyle;rounded=0;orthogonalLoop=1;jettySize=auto;html=1;exitX=1;exitY=0.5;exitDx=0;exitDy=0;entryX=0.75;entryY=1;entryDx=0;entryDy=0;" edge="1" parent="1" source="IGdE6E0HA_AKq9arTAFq-2" target="IGdE6E0HA_AKq9arTAFq-1">
          <mxGeometry relative="1" as="geometry" />
        </mxCell>
        <mxCell id="IGdE6E0HA_AKq9arTAFq-2" value="Sent borrowing&lt;br&gt;request" style="rounded=1;whiteSpace=wrap;html=1;" vertex="1" parent="1">
          <mxGeometry x="570" y="60" width="120" height="60" as="geometry" />
        </mxCell>
        <mxCell id="IGdE6E0HA_AKq9arTAFq-13" style="edgeStyle=orthogonalEdgeStyle;rounded=0;orthogonalLoop=1;jettySize=auto;html=1;exitX=0.5;exitY=1;exitDx=0;exitDy=0;entryX=0.5;entryY=0;entryDx=0;entryDy=0;" edge="1" parent="1" source="IGdE6E0HA_AKq9arTAFq-3" target="IGdE6E0HA_AKq9arTAFq-11">
          <mxGeometry relative="1" as="geometry" />
        </mxCell>
        <mxCell id="IGdE6E0HA_AKq9arTAFq-3" value="Sent stake&lt;br&gt;request" style="rounded=1;whiteSpace=wrap;html=1;" vertex="1" parent="1">
          <mxGeometry x="190" y="60" width="120" height="60" as="geometry" />
        </mxCell>
        <mxCell id="IGdE6E0HA_AKq9arTAFq-17" style="edgeStyle=orthogonalEdgeStyle;rounded=0;orthogonalLoop=1;jettySize=auto;html=1;exitX=1;exitY=0.5;exitDx=0;exitDy=0;entryX=0;entryY=0.5;entryDx=0;entryDy=0;" edge="1" parent="1" source="IGdE6E0HA_AKq9arTAFq-4" target="IGdE6E0HA_AKq9arTAFq-16">
          <mxGeometry relative="1" as="geometry" />
        </mxCell>
        <mxCell id="IGdE6E0HA_AKq9arTAFq-18" value="Recover&lt;br&gt;stake" style="edgeLabel;html=1;align=center;verticalAlign=middle;resizable=0;points=[];" vertex="1" connectable="0" parent="IGdE6E0HA_AKq9arTAFq-17">
          <mxGeometry x="-0.1826" y="1" relative="1" as="geometry">
            <mxPoint y="1" as="offset" />
          </mxGeometry>
        </mxCell>
        <mxCell id="IGdE6E0HA_AKq9arTAFq-4" value="Funds staken" style="rounded=1;whiteSpace=wrap;html=1;" vertex="1" parent="1">
          <mxGeometry x="190" y="250" width="120" height="60" as="geometry" />
        </mxCell>
        <mxCell id="IGdE6E0HA_AKq9arTAFq-5" value="Halted" style="rounded=1;whiteSpace=wrap;html=1;" vertex="1" parent="1">
          <mxGeometry x="600" y="200" width="120" height="60" as="geometry" />
        </mxCell>
        <mxCell id="IGdE6E0HA_AKq9arTAFq-14" value="No" style="edgeStyle=orthogonalEdgeStyle;rounded=0;orthogonalLoop=1;jettySize=auto;html=1;exitX=1;exitY=0.5;exitDx=0;exitDy=0;entryX=0.25;entryY=1;entryDx=0;entryDy=0;" edge="1" parent="1" source="IGdE6E0HA_AKq9arTAFq-11" target="IGdE6E0HA_AKq9arTAFq-1">
          <mxGeometry relative="1" as="geometry" />
        </mxCell>
        <mxCell id="IGdE6E0HA_AKq9arTAFq-15" value="yes" style="edgeStyle=orthogonalEdgeStyle;rounded=0;orthogonalLoop=1;jettySize=auto;html=1;exitX=0.5;exitY=1;exitDx=0;exitDy=0;entryX=0.5;entryY=0;entryDx=0;entryDy=0;" edge="1" parent="1" source="IGdE6E0HA_AKq9arTAFq-11" target="IGdE6E0HA_AKq9arTAFq-4">
          <mxGeometry relative="1" as="geometry" />
        </mxCell>
        <mxCell id="IGdE6E0HA_AKq9arTAFq-11" value="Accepted" style="rhombus;whiteSpace=wrap;html=1;" vertex="1" parent="1">
          <mxGeometry x="220" y="150" width="60" height="65" as="geometry" />
        </mxCell>
        <mxCell id="IGdE6E0HA_AKq9arTAFq-19" value="Yes, repay loan" style="edgeStyle=orthogonalEdgeStyle;rounded=0;orthogonalLoop=1;jettySize=auto;html=1;exitX=0.5;exitY=0;exitDx=0;exitDy=0;entryX=0.5;entryY=1;entryDx=0;entryDy=0;" edge="1" parent="1" source="IGdE6E0HA_AKq9arTAFq-16" target="IGdE6E0HA_AKq9arTAFq-1">
          <mxGeometry x="-0.4839" y="-5" relative="1" as="geometry">
            <mxPoint as="offset" />
          </mxGeometry>
        </mxCell>
        <mxCell id="IGdE6E0HA_AKq9arTAFq-20" value="No" style="edgeStyle=orthogonalEdgeStyle;rounded=0;orthogonalLoop=1;jettySize=auto;html=1;exitX=1;exitY=0.5;exitDx=0;exitDy=0;entryX=0;entryY=0.5;entryDx=0;entryDy=0;" edge="1" parent="1" source="IGdE6E0HA_AKq9arTAFq-16" target="IGdE6E0HA_AKq9arTAFq-5">
          <mxGeometry relative="1" as="geometry" />
        </mxCell>
        <mxCell id="IGdE6E0HA_AKq9arTAFq-16" value="Can repay&lt;br&gt;loan" style="rhombus;whiteSpace=wrap;html=1;" vertex="1" parent="1">
          <mxGeometry x="425" y="240" width="80" height="80" as="geometry" />
        </mxCell>
      </root>
    </mxGraphModel>
  </diagram>
</mxfile>
